<svg viewBox="0 0 18 18" fill="none" xmlns="http://www.w3.org/2000/svg">
<path d="M11.25 16.5V13.5C11.3544 12.5605 11.085 11.6176 10.5 10.875C12.75 10.875 15 9.375 15 6.75C15.06 5.8125 14.7975 4.89 14.25 4.125C14.46 3.2625 14.46 2.3625 14.25 1.5C14.25 1.5 13.5 1.5 12 2.625C10.02 2.25 7.98001 2.25 6.00001 2.625C4.50001 1.5 3.75001 1.5 3.75001 1.5C3.52501 2.3625 3.52501 3.2625 3.75001 4.125C3.20375 4.88683 2.93868 5.81457 3.00001 6.75C3.00001 9.375 5.25001 10.875 7.50001 10.875C7.20751 11.2425 6.99001 11.6625 6.86251 12.1125C6.73501 12.5625 6.69751 13.035 6.75001 13.5V16.5" stroke="currentColor" stroke-width="1.5" stroke-linecap="round" stroke-linejoin="round"/>
<path d="M6.75 13.5C3.3675 15 3 12 1.5 12" stroke="currentColor" stroke-width="1.5" stroke-linecap="round" stroke-linejoin="round"/>
</svg>
