<svg viewBox="0 0 18 18" fill="none" xmlns="http://www.w3.org/2000/svg">
<path d="M1.5 9C1.5 13.1394 4.86064 16.5 9 16.5C13.1394 16.5 16.5 13.1394 16.5 9C16.5 4.86064 13.1394 1.5 9 1.5C4.86064 1.5 1.5 4.86064 1.5 9V9" stroke="currentColor" stroke-width="1.5" stroke-linecap="round" stroke-linejoin="round"/>
<path d="M6 9C6 10.6557 7.34425 12 9 12C10.6557 12 12 10.6557 12 9C12 7.34425 10.6557 6 9 6C7.34425 6 6 7.34425 6 9V9" stroke="currentColor" stroke-width="1.5" stroke-linecap="round" stroke-linejoin="round"/>
<path d="M15.8775 5.99998H9.00002M2.96252 4.54498L6.40502 10.5M8.16002 16.455L11.595 10.5" stroke="currentColor" stroke-width="1.5" stroke-linecap="round" stroke-linejoin="round"/>
</svg>
